<svg version="1.0" xmlns="http://www.w3.org/2000/svg"
 width="1056.000000pt" height="882.000000pt" viewBox="0 0 1056.000000 882.000000"
 preserveAspectRatio="xMidYMid meet">

<g transform="translate(0.000000,882.000000) scale(0.100000,-0.100000)"
fill="#2B2B27">
<path d="M6935 6856 c-11 -9 -33 -16 -48 -16 -15 0 -55 -15 -89 -32 -33 -18
-72 -39 -87 -47 -36 -18 -375 -356 -412 -409 -16 -24 -29 -49 -29 -56 0 -15
-21 -26 -51 -26 -11 0 -33 -6 -48 -14 -49 -26 -287 -18 -369 11 -57 21 -423
11 -459 -13 -12 -8 -34 -14 -47 -14 -14 0 -40 -6 -58 -14 -45 -18 -97 -36
-133 -45 -36 -10 -296 -142 -345 -176 -76 -53 -153 -112 -205 -157 -30 -26
-67 -55 -82 -65 -90 -57 -589 -563 -763 -773 -41 -50 -107 -128 -145 -173 -39
-45 -78 -95 -88 -110 -10 -15 -39 -52 -65 -82 -47 -53 -91 -110 -145 -189 -16
-23 -46 -59 -66 -81 -21 -22 -46 -53 -56 -70 -10 -16 -37 -50 -60 -75 -22 -25
-49 -58 -59 -73 -9 -15 -39 -53 -67 -83 -27 -30 -49 -59 -49 -66 0 -6 -20 -33
-45 -59 -25 -26 -45 -53 -45 -60 0 -6 -13 -27 -30 -46 -16 -18 -30 -39 -30
-46 0 -7 -13 -28 -28 -47 -16 -19 -32 -52 -35 -73 -3 -21 -33 -93 -66 -160
-34 -71 -66 -151 -74 -192 -8 -38 -20 -94 -26 -123 -14 -69 -14 -245 0 -314
32 -158 45 -201 85 -286 24 -52 57 -109 74 -128 34 -39 30 -63 -20 -119 -55
-62 -60 -75 -60 -165 0 -60 4 -92 15 -106 8 -10 15 -31 15 -45 0 -14 7 -34 15
-45 8 -10 15 -31 15 -45 0 -14 7 -34 15 -45 11 -15 14 -57 14 -209 0 -152 -3
-194 -14 -209 -20 -26 -20 -126 0 -152 8 -10 15 -34 15 -52 0 -20 12 -51 30
-77 17 -24 30 -55 30 -69 l0 -26 -336 0 c-212 0 -342 -4 -355 -10 -21 -12 -26
-40 -6 -40 59 -1 1062 1 2927 6 1218 3 2229 5 2245 4 17 -1 361 0 765 0 502 1
744 -1 762 -9 15 -6 35 -8 43 -5 28 11 15 32 -29 49 -39 15 -103 16 -655 13
-336 -1 -611 0 -611 4 0 4 -7 13 -15 22 -19 19 -45 10 -45 -15 0 -17 -8 -19
-79 -19 -100 0 -128 10 -146 54 -16 38 -41 60 -135 117 -111 67 -177 90 -285
96 -65 4 -99 18 -190 77 -66 42 -155 124 -155 141 0 6 -11 26 -25 45 -14 19
-25 44 -25 56 0 11 -13 46 -30 77 -16 31 -30 67 -30 79 0 13 -7 32 -15 42 -8
11 -15 31 -15 45 0 14 -7 35 -15 45 -8 11 -15 30 -15 42 0 12 -6 35 -14 51
-14 27 -34 99 -44 155 -8 49 24 32 84 -45 31 -39 72 -88 90 -107 38 -40 104
-164 104 -195 0 -24 118 -205 169 -258 20 -21 52 -47 71 -56 19 -10 53 -27 75
-39 53 -26 102 -43 145 -50 19 -2 44 -11 55 -18 11 -8 29 -14 41 -14 12 0 45
-13 75 -28 30 -16 71 -32 93 -35 21 -3 55 -18 75 -32 25 -17 50 -25 79 -25 34
0 40 -3 35 -16 -3 -9 0 -20 8 -24 15 -10 49 5 49 23 0 7 15 19 32 27 55 26 66
88 42 232 -6 37 -116 158 -143 158 -19 0 -12 43 11 67 52 55 12 153 -62 153
-16 0 -32 4 -35 10 -3 5 -23 14 -43 20 -21 5 -68 28 -104 50 -37 22 -79 40
-93 40 -15 0 -36 6 -48 12 -12 7 -56 15 -97 19 -67 5 -112 16 -160 39 -8 4
-28 33 -44 66 -15 32 -34 72 -42 87 -8 16 -14 35 -14 42 0 7 -7 27 -15 44 -8
17 -22 45 -30 62 -8 17 -15 36 -15 43 0 7 -13 38 -30 69 -16 31 -30 65 -30 75
0 11 -13 44 -30 75 -16 31 -30 64 -30 74 0 14 -43 109 -136 296 -8 16 -14 34
-14 40 0 10 -38 93 -106 230 -8 16 -14 35 -14 42 0 7 -7 27 -15 44 -8 17 -22
45 -30 62 -8 17 -15 45 -15 62 0 18 -7 41 -15 51 -8 11 -15 41 -15 66 0 25 -7
55 -15 66 -8 10 -15 37 -15 60 0 22 -7 49 -15 60 -8 10 -15 37 -15 60 0 22 -7
49 -15 60 -9 12 -15 43 -15 84 0 41 -6 72 -15 84 -12 15 -15 55 -15 175 -1 86
-6 176 -12 201 -6 25 -12 101 -15 169 -3 82 -9 132 -18 145 -22 33 -24 315 -4
347 9 13 19 47 23 74 3 28 9 67 12 88 l6 37 72 0 c48 0 79 5 92 15 10 8 33 15
50 15 37 0 44 -20 44 -124 0 -39 5 -69 15 -82 8 -10 15 -25 15 -33 1 -53 79
-150 123 -152 74 -5 114 4 157 34 39 27 52 31 98 29 36 -2 61 2 77 12 31 21
59 20 76 -1 32 -38 93 -73 128 -73 43 0 117 44 152 90 13 17 43 53 67 79 23
27 42 52 42 57 0 5 14 17 30 26 17 9 30 24 30 33 0 12 14 15 78 15 53 0 84 5
98 15 24 18 62 18 94 0 50 -28 158 -20 214 18 58 38 116 137 116 197 0 20 7
45 15 56 8 11 15 41 15 70 0 33 5 56 15 64 12 10 15 37 15 124 0 83 4 117 15
132 20 27 20 191 0 218 -9 12 -15 41 -15 70 0 61 -51 171 -105 226 -50 51
-238 138 -320 147 -33 4 -53 18 -110 72 -65 61 -96 80 -205 122 -54 20 -240
24 -265 5z m239 -51 c11 -8 29 -15 41 -15 49 0 225 -138 225 -176 0 -16 24
-24 41 -13 21 13 62 10 83 -6 11 -8 29 -15 40 -15 30 0 160 -67 190 -99 46
-48 96 -160 96 -217 0 -29 6 -58 15 -70 20 -26 20 -152 0 -178 -11 -15 -15
-49 -15 -132 0 -87 -3 -114 -15 -124 -10 -8 -15 -31 -15 -64 0 -29 -7 -59 -15
-70 -8 -11 -15 -36 -15 -55 0 -49 -57 -159 -95 -182 -62 -38 -215 -15 -215 32
0 9 -13 41 -30 72 -25 47 -30 69 -30 124 -1 44 -6 75 -15 87 -11 15 -15 48
-15 122 l0 102 -35 31 c-20 17 -48 33 -63 36 -15 3 -45 11 -67 18 -22 6 -83
14 -134 17 l-95 5 32 36 c28 32 32 43 32 95 0 77 -15 103 -75 136 -72 40 -117
37 -218 -13 -101 -50 -126 -74 -158 -144 -30 -67 -54 -79 -126 -60 -73 19
-103 37 -156 94 -54 58 -60 93 -25 144 37 53 360 377 398 398 19 11 55 31 79
44 24 14 58 25 76 25 17 0 40 7 51 15 13 10 46 14 114 14 68 0 101 -4 114 -14z
m-171 -545 c57 -34 65 -112 17 -167 -16 -18 -30 -38 -30 -43 0 -6 -9 -10 -19
-10 -29 0 -51 -11 -51 -25 0 -16 22 -25 61 -25 26 0 29 -3 24 -21 -5 -13 -2
-25 6 -30 17 -10 49 7 49 26 0 21 132 20 190 0 23 -8 52 -15 63 -15 51 0 67
-35 67 -145 0 -73 4 -106 15 -121 9 -12 14 -43 15 -86 0 -56 5 -78 32 -129
l32 -61 -24 -19 c-18 -13 -42 -19 -82 -19 l-58 0 0 80 c0 46 -6 95 -14 113
-16 38 -69 87 -96 87 -55 0 -68 -35 -18 -48 49 -13 72 -51 76 -132 l4 -70 -30
0 c-26 0 -32 5 -44 41 -15 48 -45 73 -68 59 -13 -8 -13 -13 -1 -32 32 -52 32
-79 1 -90 -28 -9 -43 -38 -21 -38 12 0 71 -62 71 -74 0 -5 -19 -30 -42 -56
-24 -26 -51 -60 -62 -75 -52 -75 -116 -82 -186 -20 -55 49 -98 58 -136 30 -35
-26 -81 -19 -92 14 -12 33 -43 54 -66 45 -18 -7 -22 -34 -6 -34 6 0 14 -10 19
-22 18 -49 -146 -108 -192 -69 -18 14 -57 90 -57 110 0 6 -7 22 -16 36 -12 19
-16 58 -17 187 -1 90 -6 166 -11 170 -21 14 -35 -7 -41 -63 -7 -58 -7 -59 -38
-59 -18 -1 -43 -7 -57 -15 -14 -8 -53 -14 -90 -15 l-65 0 -13 53 c-19 81 -16
421 3 437 11 9 15 33 15 90 0 57 4 81 15 90 9 7 15 29 15 51 l0 39 53 0 c29 0
61 6 72 14 26 17 95 28 95 15 0 -23 117 -132 165 -154 139 -63 211 -49 261 53
37 77 44 84 124 126 78 40 134 45 183 16z m-1221 -35 c13 -5 9 -153 -8 -246
-4 -26 -1 -40 10 -52 24 -23 46 -10 46 27 0 17 3 78 7 136 l8 105 35 3 c19 2
54 1 77 -3 39 -6 43 -9 43 -34 0 -16 -7 -34 -15 -41 -11 -9 -15 -33 -15 -90 0
-58 -4 -81 -16 -90 -13 -12 -14 -43 -10 -244 3 -127 7 -260 7 -296 2 -81 -10
-169 -27 -195 -6 -11 -15 -44 -19 -73 -6 -47 -10 -54 -40 -66 -18 -8 -39 -27
-47 -43 -13 -28 -74 -67 -90 -57 -17 11 -10 260 8 275 20 16 14 157 -7 170
-31 19 -41 -2 -34 -72 8 -80 -5 -91 -26 -23 -16 51 -45 79 -68 65 -12 -8 -12
-14 1 -43 9 -18 19 -44 23 -58 4 -14 16 -34 26 -46 18 -19 20 -39 20 -268 0
-189 3 -256 15 -287 8 -25 14 -79 14 -138 0 -70 4 -103 15 -117 10 -13 14 -45
15 -100 0 -46 7 -100 15 -124 22 -63 20 -180 -2 -181 -10 0 -40 -13 -68 -29
-51 -30 -98 -53 -150 -75 -16 -7 -47 -20 -68 -29 -21 -9 -46 -16 -56 -16 -10
0 -35 -11 -55 -25 -68 -46 -166 -14 -166 54 0 15 -7 36 -15 47 -8 10 -15 28
-15 39 0 11 -7 29 -15 39 -8 11 -15 41 -15 66 0 25 -7 55 -15 66 -8 10 -15 31
-15 45 0 14 -7 34 -15 45 -8 10 -15 35 -15 54 0 19 -7 44 -15 54 -8 11 -15 26
-15 32 0 7 -14 37 -31 66 -23 39 -31 66 -33 108 -5 129 -54 236 -97 209 -12
-7 -12 -13 4 -40 9 -17 17 -38 17 -48 0 -10 7 -38 16 -64 9 -26 14 -52 12 -58
-6 -18 -70 43 -93 88 -29 56 -65 68 -65 22 0 -41 99 -159 133 -159 13 0 87
-123 87 -144 0 -7 7 -21 15 -32 8 -10 15 -35 15 -54 0 -19 7 -44 15 -54 8 -11
15 -32 15 -46 0 -14 5 -31 12 -38 7 -7 15 -39 18 -71 5 -58 5 -60 -25 -75 -16
-9 -50 -32 -75 -51 -25 -19 -61 -44 -80 -55 -39 -23 -92 -59 -130 -88 -14 -11
-49 -32 -79 -46 -113 -58 -211 -137 -211 -171 0 -6 -9 -20 -20 -30 -30 -27
-66 -104 -74 -158 -6 -42 -12 -50 -45 -66 -38 -20 -111 -93 -111 -111 0 -6
-17 -29 -39 -53 -21 -23 -46 -55 -55 -72 -9 -16 -28 -46 -41 -65 -72 -103 -79
-110 -107 -110 -38 0 -106 44 -126 82 -10 17 -36 52 -58 78 -23 27 -49 70 -59
96 -10 27 -28 73 -41 101 -13 29 -26 65 -29 80 -12 54 -36 138 -46 156 -5 9
-12 36 -15 60 -10 72 -34 110 -79 126 -58 19 -165 25 -221 12 -27 -6 -94 -16
-149 -21 -55 -6 -138 -17 -185 -25 -47 -8 -115 -18 -152 -21 l-68 -7 0 30 c0
17 8 38 19 47 11 10 29 37 39 59 11 23 29 51 41 61 12 11 21 25 21 33 0 8 20
36 45 62 25 26 45 53 45 59 0 7 22 36 49 66 28 30 58 68 67 83 10 15 37 48 59
73 23 25 50 59 60 75 10 17 35 48 56 70 20 22 50 58 66 81 54 79 98 136 145
189 26 30 55 67 65 82 10 15 49 65 88 110 38 45 104 123 145 173 179 216 654
697 757 767 21 14 58 43 83 65 68 60 159 128 169 128 5 0 23 12 40 26 40 33
280 154 307 154 11 0 29 7 40 15 10 8 31 15 45 15 14 0 34 7 45 15 10 8 35 15
54 15 20 0 45 7 56 15 13 8 52 15 100 18 145 6 312 7 326 2z m1451 -895 c-6
-23 -23 -26 -41 -8 -19 19 -14 28 17 28 24 0 28 -3 24 -20z m-1323 -398 c0
-68 4 -104 14 -118 10 -13 16 -60 19 -144 3 -69 9 -145 15 -170 6 -25 11 -116
12 -202 0 -157 0 -158 -22 -158 -13 -1 -34 -7 -48 -15 -14 -8 -40 -14 -57 -15
-31 0 -33 2 -33 34 0 18 -7 53 -15 76 -8 24 -15 78 -15 124 -1 55 -5 87 -15
100 -11 14 -15 47 -15 117 0 60 -6 112 -15 139 -19 53 -20 193 -2 207 6 6 28
15 47 22 38 13 90 57 90 77 0 11 14 21 33 23 4 1 7 -43 7 -97z m90 -899 c1
-35 6 -66 15 -77 8 -11 15 -38 15 -60 0 -23 7 -50 15 -60 8 -11 15 -38 15 -60
0 -23 7 -50 15 -60 8 -11 15 -41 15 -66 0 -25 7 -55 15 -66 8 -10 15 -33 15
-51 0 -17 7 -46 16 -65 38 -75 44 -90 44 -103 0 -7 6 -26 14 -42 68 -137 106
-220 106 -230 0 -6 6 -24 14 -40 93 -187 136 -282 136 -296 0 -10 14 -43 30
-74 17 -31 30 -64 30 -75 0 -10 14 -44 30 -75 17 -31 30 -62 30 -69 0 -7 7
-26 15 -43 8 -17 22 -45 30 -62 8 -17 15 -37 15 -44 0 -7 6 -26 14 -42 8 -15
26 -53 40 -84 29 -65 75 -109 114 -109 15 0 36 -7 46 -15 13 -10 44 -15 90
-15 47 -1 78 -6 90 -15 11 -8 34 -15 51 -15 17 0 46 -10 65 -23 53 -36 182
-93 225 -99 30 -5 32 -52 3 -88 -23 -29 -51 -37 -77 -21 -30 19 -39 2 -34 -62
l5 -62 -33 -17 c-19 -9 -44 -19 -56 -23 -31 -9 -29 -33 2 -41 15 -4 28 -16 31
-30 4 -13 16 -32 28 -42 18 -15 46 -62 46 -78 0 -11 -66 7 -130 35 -89 39
-129 53 -170 59 -19 2 -44 11 -55 18 -11 8 -29 14 -41 14 -24 0 -124 57 -160
91 -36 33 -164 233 -164 254 0 31 -67 156 -104 195 -18 19 -59 68 -90 108 -41
52 -71 79 -104 95 -40 19 -48 28 -59 66 -7 25 -17 49 -23 55 -5 5 -10 42 -10
81 0 47 -5 78 -15 91 -9 12 -15 43 -15 84 0 41 -6 72 -15 84 -9 12 -15 42 -15
72 0 29 -6 65 -14 81 -8 15 -19 51 -26 78 -6 28 -19 66 -29 85 -10 19 -26 60
-36 90 -10 30 -24 64 -31 75 -8 11 -14 31 -14 45 0 14 -7 34 -15 44 -10 13
-15 43 -15 81 0 38 -5 68 -15 81 -9 12 -15 43 -15 84 0 41 -6 72 -15 84 -10
13 -15 43 -15 81 0 38 -5 68 -15 81 -9 12 -14 43 -15 85 0 47 -4 70 -15 79 -8
7 -15 25 -15 41 0 27 3 29 38 29 21 0 47 7 58 15 10 8 36 15 57 15 l37 0 0
-57z m-887 -99 c9 -19 17 -45 17 -57 0 -46 86 -107 151 -107 26 0 29 -3 29
-33 0 -36 34 -145 50 -161 6 -6 10 -22 10 -36 0 -14 7 -35 15 -46 8 -10 15
-29 15 -42 0 -12 14 -48 30 -79 17 -31 30 -66 30 -77 0 -12 7 -31 15 -42 8
-10 15 -31 15 -45 0 -14 7 -34 15 -45 8 -10 15 -37 15 -60 0 -22 7 -49 15 -60
9 -12 15 -43 15 -84 0 -41 6 -72 15 -84 8 -11 15 -41 15 -66 0 -25 7 -55 15
-66 8 -10 15 -31 15 -45 0 -14 7 -34 15 -45 8 -10 15 -31 15 -45 0 -14 7 -34
15 -45 8 -10 15 -29 15 -41 0 -12 20 -62 45 -110 25 -48 45 -95 45 -104 0 -15
42 -101 132 -274 43 -81 108 -222 108 -232 0 -6 6 -24 14 -40 59 -121 76 -162
76 -188 0 -16 7 -39 15 -49 10 -13 15 -43 15 -81 0 -38 5 -68 15 -81 8 -10 15
-36 15 -56 0 -22 14 -64 35 -105 19 -37 35 -72 35 -78 0 -6 -120 -10 -340 -10
-383 0 -376 -2 -302 72 100 100 141 271 117 493 -9 83 -136 349 -202 422 -24
26 -43 53 -43 59 0 7 -27 40 -60 75 -33 34 -60 68 -60 76 0 19 -77 92 -118
112 -18 10 -37 29 -43 44 -6 15 -44 61 -85 103 -41 42 -74 82 -74 88 0 6 -27
41 -60 76 -33 35 -60 69 -60 75 0 6 -27 40 -60 75 -33 35 -60 69 -60 75 0 6
-27 40 -60 75 -33 35 -60 70 -60 76 0 6 -31 43 -69 83 -38 39 -76 86 -86 105
-9 18 -29 38 -45 44 -25 10 -28 14 -22 46 6 42 37 107 64 137 11 12 27 37 36
55 19 37 98 95 187 138 33 16 69 38 79 50 11 11 25 21 32 21 7 0 29 14 47 30
19 17 39 30 45 30 6 0 28 15 51 33 63 50 114 87 120 87 3 0 14 -16 24 -36z
m675 -38 c2 -40 9 -78 17 -90 9 -12 15 -44 15 -81 0 -38 6 -68 15 -81 9 -12
15 -43 15 -84 0 -41 6 -72 15 -84 10 -13 15 -43 15 -81 0 -38 5 -68 15 -81 8
-10 15 -30 15 -44 0 -14 6 -34 14 -45 7 -11 21 -45 31 -75 10 -30 26 -71 36
-90 10 -19 23 -57 29 -85 7 -27 18 -63 26 -78 8 -16 14 -52 14 -81 0 -30 6
-60 15 -72 9 -12 15 -43 15 -84 0 -41 6 -72 15 -84 10 -13 15 -44 15 -90 1
-47 6 -78 15 -90 8 -11 15 -26 15 -34 0 -8 6 -28 14 -45 8 -18 16 -54 19 -82
4 -60 24 -139 43 -178 8 -16 14 -39 14 -51 0 -12 7 -31 15 -42 8 -10 15 -31
15 -45 0 -14 7 -34 15 -45 8 -10 15 -29 15 -42 0 -12 14 -48 30 -79 17 -31 30
-66 30 -77 0 -12 11 -37 25 -56 14 -19 25 -39 25 -45 0 -17 99 -108 165 -152
105 -70 159 -93 218 -93 30 0 74 -7 97 -15 23 -8 51 -15 62 -15 10 0 49 -20
86 -45 37 -25 72 -45 78 -45 15 0 50 -41 59 -67 l6 -23 -208 -1 c-114 0 -284
-3 -378 -6 -244 -6 -313 1 -326 35 -5 15 -23 53 -39 85 -17 33 -30 73 -30 95
0 20 -7 46 -15 56 -10 13 -15 43 -15 81 0 38 -5 68 -15 81 -8 10 -15 33 -15
49 0 26 -17 67 -76 188 -8 16 -14 34 -14 40 0 10 -65 151 -108 232 -90 173
-132 259 -132 274 0 9 -20 56 -45 104 -25 48 -45 98 -45 110 0 12 -7 31 -15
41 -8 11 -15 31 -15 45 0 14 -7 35 -15 45 -8 11 -15 31 -15 45 0 14 -7 35 -15
45 -8 11 -15 41 -15 66 0 25 -7 55 -15 66 -9 12 -15 43 -15 84 0 41 -6 72 -15
84 -8 11 -15 38 -15 60 0 23 -7 50 -15 60 -8 11 -15 31 -15 45 0 14 -7 35 -15
45 -8 11 -15 30 -15 42 0 11 -13 46 -30 77 -16 31 -30 67 -30 79 0 13 -7 32
-15 42 -8 11 -15 32 -15 46 0 14 -4 30 -10 36 -17 17 -50 125 -50 164 0 43 14
60 50 60 14 0 35 7 46 15 10 8 27 15 37 15 11 0 31 6 45 14 15 8 38 19 52 25
14 6 52 26 85 45 92 53 109 47 113 -38z m-2304 -237 c46 -11 56 -28 71 -113 3
-21 10 -46 15 -55 9 -16 34 -102 45 -154 3 -15 16 -51 29 -80 13 -28 31 -74
41 -101 10 -26 37 -70 61 -97 24 -27 44 -54 44 -59 0 -36 133 -130 184 -130
40 0 77 23 109 67 53 73 76 108 96 143 10 19 31 46 46 60 15 14 35 41 45 60
48 93 156 140 176 77 4 -11 40 -56 80 -98 41 -43 74 -83 74 -89 0 -6 27 -40
60 -75 33 -35 60 -69 60 -75 0 -6 27 -40 60 -75 33 -35 60 -69 60 -75 0 -6 27
-40 60 -75 33 -35 60 -69 60 -75 0 -7 36 -49 80 -95 91 -95 94 -106 43 -139
-47 -30 -243 -228 -243 -246 0 -7 -38 -51 -84 -99 -46 -47 -91 -99 -99 -116
-8 -16 -36 -50 -61 -75 -25 -24 -46 -49 -46 -55 -1 -17 -37 -55 -54 -55 -31 0
-188 59 -209 78 -29 27 -565 293 -645 321 -34 11 -78 21 -98 21 -20 0 -57 7
-83 15 -104 32 -155 45 -181 45 -78 0 -362 114 -428 171 -18 16 -40 29 -48 29
-29 0 -86 75 -134 175 -44 91 -56 132 -89 293 -13 65 -14 208 -2 265 5 23 17
80 27 126 12 54 36 120 69 185 l50 101 75 7 c41 3 116 13 165 22 50 9 137 21
195 26 58 6 119 14 135 19 42 13 138 13 189 0z m-667 -1283 c37 -31 195 -110
269 -134 100 -33 171 -52 197 -52 14 0 47 -7 73 -14 27 -8 60 -17 74 -20 l25
-5 -3 -121 c-2 -76 1 -133 8 -153 6 -18 16 -59 20 -92 5 -33 12 -70 16 -83 l7
-23 -124 3 c-146 3 -161 -1 -200 -54 -27 -39 -29 -47 -29 -138 l0 -97 64 -61
c35 -34 73 -62 83 -62 42 -1 82 -68 83 -137 l0 -23 -266 0 c-282 0 -304 3
-304 46 0 14 -13 45 -30 69 -18 26 -30 57 -30 77 0 18 -7 42 -15 52 -19 25
-19 87 0 112 21 28 21 430 0 458 -8 11 -15 31 -15 45 0 14 -7 35 -15 45 -8 11
-15 31 -15 45 0 14 -7 35 -15 45 -28 37 -20 146 14 194 16 22 35 43 41 47 6 4
15 18 20 31 12 30 31 30 67 0z m2426 -35 c20 -19 37 -41 37 -49 0 -8 27 -42
60 -76 33 -35 60 -68 60 -75 0 -6 19 -33 43 -59 27 -29 71 -105 119 -202 90
-182 101 -240 83 -420 -8 -78 -74 -221 -116 -251 -15 -11 -33 -35 -39 -53 -11
-34 -12 -34 -83 -41 -40 -3 -438 -5 -886 -3 l-814 3 -13 45 c-8 25 -14 57 -14
71 0 14 -7 34 -15 45 -8 10 -15 37 -15 60 0 22 -7 49 -15 60 -8 10 -15 35 -15
54 0 19 -7 44 -15 54 -8 11 -15 34 -15 51 0 17 -7 40 -15 51 -8 10 -15 33 -15
50 0 17 -7 51 -15 74 -8 23 -15 57 -15 75 0 18 -7 52 -15 75 -15 42 -21 203
-9 234 9 23 57 20 140 -8 77 -26 588 -279 599 -296 13 -20 121 -67 197 -86 44
-11 78 -24 78 -31 0 -19 83 -63 119 -63 18 0 44 -6 60 -14 30 -16 169 -25 189
-12 16 9 16 33 0 38 -7 2 -47 6 -88 7 -43 2 -83 9 -94 17 -11 8 -39 14 -61 14
-67 1 -98 41 -64 83 10 14 19 29 19 34 0 5 21 29 46 53 25 25 54 61 64 80 10
19 51 67 90 105 39 39 80 86 90 105 19 36 196 215 240 242 31 19 59 9 113 -41z
m2115 -626 c101 -85 140 -128 144 -161 5 -40 0 -42 -38 -11 -26 20 -39 29
-122 82 -28 17 -32 26 -32 63 0 46 15 55 48 27z m-3913 -85 c59 0 60 -1 78
-36 9 -19 17 -47 17 -62 0 -16 7 -37 15 -48 8 -10 15 -35 15 -54 0 -19 7 -44
15 -54 8 -11 15 -38 15 -61 0 -23 5 -46 12 -53 6 -6 14 -30 18 -54 4 -24 11
-55 15 -70 l7 -28 -111 0 -111 0 0 30 c0 72 -23 122 -69 152 -25 15 -50 28
-55 28 -6 0 -32 21 -58 47 l-48 47 0 76 c0 119 33 154 135 145 28 -3 77 -5
110 -5z m3893 -61 c18 -16 39 -29 46 -29 7 0 23 -11 36 -25 13 -14 41 -30 62
-37 21 -6 38 -13 38 -16 0 -36 -26 -82 -47 -82 -16 0 -23 6 -23 18 0 26 -29
49 -84 68 -31 11 -50 24 -56 39 -5 12 -16 25 -24 28 -19 7 -39 54 -30 68 9 14
45 0 82 -32z m60 -177 c5 -16 -40 -16 -56 0 -7 7 -12 18 -12 25 0 17 61 -6 68
-25z M6653 3603 c-22 -8 -14 -32 11 -39 28 -7 25 14 42 -386 l5 -147 -28 -14
c-23 -12 -34 -12 -63 -2 -68 24 -86 -16 -20 -42 28 -11 42 -24 47 -41 8 -34
247 -294 284 -310 23 -9 35 -10 52 -1 42 21 297 283 307 315 7 21 19 34 36 38
29 8 43 34 24 46 -7 5 -24 4 -37 -1 -15 -6 -31 -5 -43 1 -10 5 -30 10 -43 10
-36 0 -37 7 -37 295 0 251 -1 265 -19 275 -20 10 -493 13 -518 3z m487 -308
l0 -266 25 -24 c15 -16 36 -25 54 -25 28 0 29 -1 20 -28 -14 -40 -271 -295
-290 -286 -24 10 -238 249 -248 277 -9 23 -7 28 25 46 l35 21 -5 163 c-3 89
-8 206 -12 260 -3 55 -3 105 0 113 4 11 42 14 201 14 l195 0 0 -265z"/>
</g>
</svg>