<svg version="1.0" xmlns="http://www.w3.org/2000/svg"
 width="1056.000000pt" height="882.000000pt" viewBox="0 0 1056.000000 882.000000"
 preserveAspectRatio="xMidYMid meet">
<g class="place" transform="translate(0.0,21.0)">

<g transform="translate(0.000000,882.000000) scale(0.100000,-0.100000)"
fill="#2B2B27">
<path d="M3360 8061 c-78 -24 -150 -74 -242 -169 -54 -54 -98 -105 -98 -112 0
-7 -31 -44 -69 -84 -101 -105 -126 -158 -126 -271 1 -68 6 -105 23 -150 19
-50 20 -65 11 -94 -15 -43 17 -201 43 -217 5 -4 16 -22 24 -40 16 -37 55 -62
116 -72 l41 -7 28 -84 c41 -120 63 -161 114 -211 l45 -44 0 -176 0 -176 -72
-33 c-85 -39 -117 -52 -178 -76 -25 -9 -58 -23 -75 -30 -57 -24 -164 -62 -210
-75 -16 -5 -46 -14 -65 -21 -19 -6 -51 -17 -70 -24 -19 -7 -51 -18 -70 -24
-19 -7 -48 -16 -65 -20 -71 -18 -197 -92 -208 -122 -6 -16 -19 -32 -29 -35
-34 -10 -128 -162 -128 -207 0 -12 -7 -31 -15 -41 -9 -12 -15 -42 -15 -72 0
-34 -5 -56 -15 -64 -12 -10 -15 -37 -15 -122 0 -81 -4 -115 -15 -132 -19 -28
-16 -527 4 -761 13 -153 24 -175 80 -175 l26 0 -3 -75 c-3 -57 0 -82 12 -100
11 -17 16 -48 16 -107 0 -55 5 -90 14 -103 7 -11 16 -40 18 -65 18 -179 113
-325 238 -369 l55 -19 3 -194 c2 -183 3 -194 23 -210 12 -10 30 -18 42 -18 18
0 19 -5 14 -49 -3 -27 -10 -58 -16 -68 -5 -10 -13 -39 -16 -65 -3 -26 -10 -50
-16 -53 -5 -4 -9 -20 -9 -36 0 -16 -15 -60 -34 -97 -18 -37 -41 -89 -50 -115
-9 -27 -23 -61 -30 -75 -8 -15 -28 -72 -46 -127 -18 -55 -36 -109 -40 -120 -5
-11 -11 -40 -15 -65 -3 -24 -10 -49 -14 -55 -5 -5 -11 -28 -14 -50 -3 -22 -14
-85 -24 -140 -14 -77 -18 -152 -18 -330 l0 -230 37 -103 c22 -62 48 -116 67
-137 58 -67 50 -73 -101 -79 -73 -3 -170 -8 -216 -11 -46 -4 -95 -2 -110 3
-59 20 -73 -20 -16 -44 39 -16 38 -16 354 7 180 13 895 15 970 3 32 -5 302 -6
650 -1 1026 13 1239 13 1295 -3 28 -7 64 -12 80 -11 17 2 813 5 1770 7 957 2
1743 4 1748 4 18 0 5 28 -18 38 -35 16 -3420 17 -3462 1 -20 -8 -43 -7 -86 2
-66 15 -69 34 -15 78 36 29 97 151 122 242 22 83 18 339 -8 434 -8 33 -22 87
-30 120 -34 137 -39 150 -73 178 -60 51 -33 86 67 85 36 0 266 -2 513 -4 l447
-4 0 -465 0 -464 22 -15 c28 -20 2103 -25 2139 -6 19 11 19 53 19 2844 l0
2834 -35 31 -36 31 -971 -1 c-842 0 -975 -2 -1000 -15 -48 -25 -108 -85 -108
-108 0 -11 -7 -30 -15 -40 -20 -26 -23 -1124 -3 -1144 9 -9 9 -21 0 -50 -7
-22 -12 -52 -12 -67 0 -16 -6 -36 -14 -44 -23 -25 -34 -256 -14 -279 10 -11
17 -48 21 -102 3 -47 11 -99 17 -117 8 -23 8 -37 1 -52 -8 -14 -11 -354 -11
-1114 0 -1029 -1 -1095 -17 -1109 -17 -16 -619 -316 -699 -349 -135 -56 -173
-78 -189 -108 -14 -29 -19 -31 -71 -31 -30 0 -64 -5 -76 -11 -28 -15 -29 -13
-43 108 -7 59 -23 135 -34 167 -26 74 -29 240 -6 306 8 23 15 64 15 90 0 26 7
67 15 90 9 25 15 77 15 124 0 57 5 88 15 102 11 15 14 52 15 165 0 112 3 150
15 165 21 28 21 280 0 308 -20 27 -22 505 -2 510 6 2 26 7 42 12 l30 9 3 140
c2 104 -1 150 -13 184 -11 32 -15 87 -15 200 -1 121 -4 160 -15 175 -11 15
-15 50 -15 141 0 91 -4 126 -15 141 -10 13 -15 45 -15 99 0 54 -5 86 -15 99
-8 11 -15 33 -15 49 0 16 -6 41 -14 55 -8 15 -22 55 -32 90 -17 60 -65 122
-94 122 -6 0 -10 6 -10 13 0 7 -12 25 -27 39 -30 28 -483 258 -508 258 -9 0
-42 14 -75 30 -33 17 -66 30 -75 30 -9 0 -39 12 -68 27 -29 14 -65 29 -82 34
-36 9 -88 27 -133 45 -18 8 -41 14 -51 14 -28 0 -31 18 -31 179 0 149 8 198
39 236 24 28 57 102 71 155 39 151 42 158 71 171 72 29 149 167 149 266 0 57
-2 63 -35 92 -19 16 -53 36 -75 42 -38 12 -40 14 -40 52 0 39 13 94 31 129 27
53 7 141 -51 228 -17 25 -38 58 -48 74 -55 93 -118 139 -237 171 -62 16 -184
57 -245 80 -38 15 -149 18 -190 6z m190 -55 c19 -8 60 -24 90 -35 30 -12 73
-26 95 -31 144 -31 192 -62 247 -155 10 -17 31 -50 48 -75 44 -66 60 -105 60
-145 0 -43 -14 -45 -60 -7 -35 29 -367 202 -386 202 -15 0 -164 -79 -196 -104
-79 -62 -158 -93 -279 -111 -55 -8 -86 -37 -98 -93 -5 -26 -23 -82 -40 -122
l-30 -75 -44 -3 -44 -3 -19 58 c-46 139 -16 242 107 369 38 40 69 77 69 84 0
21 182 200 225 222 77 40 186 50 255 24z m258 -377 c170 -87 260 -145 252
-163 -2 -6 -7 -65 -11 -131 -3 -66 -10 -130 -14 -141 -4 -15 -2 -23 8 -27 27
-10 49 17 54 67 6 45 7 47 32 41 76 -19 91 -87 42 -190 -43 -90 -101 -154
-101 -111 0 8 -6 16 -12 19 -25 8 -38 -6 -38 -42 0 -21 -6 -57 -14 -82 -7 -24
-19 -66 -25 -93 -13 -56 -55 -149 -75 -165 -7 -6 -19 -31 -26 -56 -11 -38 -18
-46 -48 -56 -20 -7 -67 -27 -104 -46 -66 -34 -70 -35 -170 -31 -100 3 -105 4
-159 41 -31 20 -61 37 -68 37 -6 0 -11 6 -11 13 0 7 -20 33 -45 57 -49 48 -79
105 -115 215 -12 39 -25 75 -29 80 -3 6 -4 21 -2 34 3 23 -25 89 -43 103 -31
22 -48 -32 -21 -68 20 -27 19 -34 -9 -34 -36 0 -76 17 -76 33 0 7 -11 28 -25
47 -14 18 -27 50 -31 69 -3 20 -9 48 -14 64 -16 49 5 87 48 87 39 -1 51 -16
82 -107 12 -34 29 -46 50 -33 16 10 4 58 -29 124 -14 26 -17 43 -11 55 22 38
61 144 71 191 11 53 29 70 73 70 77 0 182 45 296 127 26 19 140 80 153 82 4 1
78 -35 165 -80z m2625 -915 c-3 -9 0 -20 8 -24 16 -10 49 6 49 24 0 9 20 13
73 14 l72 1 -3 -256 c-2 -207 -5 -260 -18 -277 -12 -17 -14 -59 -14 -224 1
-112 0 -205 -2 -207 -2 -1 -30 -16 -64 -33 -42 -21 -92 -62 -162 -131 -55 -56
-103 -101 -107 -101 -3 0 -5 242 -5 538 0 458 2 541 15 558 8 10 15 29 15 41
0 33 76 93 116 93 27 0 32 -3 27 -16z m1620 -44 c9 -32 17 -74 17 -93 0 -18 7
-42 15 -53 22 -29 22 -1015 0 -1034 -13 -11 -15 -59 -15 -319 -1 -253 -3 -309
-15 -325 -12 -16 -15 -66 -15 -270 -1 -205 -3 -255 -15 -270 -12 -16 -15 -63
-15 -252 0 -180 -3 -241 -15 -274 -11 -32 -15 -90 -15 -240 0 -150 -4 -208
-15 -240 -12 -33 -15 -93 -15 -270 0 -177 -3 -237 -15 -270 -12 -34 -15 -98
-15 -304 -1 -214 -3 -265 -15 -280 -12 -16 -15 -54 -15 -177 0 -113 -4 -168
-15 -199 -8 -23 -15 -54 -15 -69 0 -20 -9 -31 -38 -46 l-37 -21 3 561 c2 367
6 570 13 590 6 17 13 118 16 225 2 107 9 209 15 225 6 17 14 118 18 225 5 107
13 215 19 240 5 25 10 135 11 246 0 160 3 204 15 220 12 15 14 63 15 250 0
180 3 241 15 274 19 53 21 196 3 203 -30 10 -38 -6 -38 -73 0 -37 -7 -87 -15
-110 -12 -33 -15 -94 -15 -274 -1 -187 -3 -235 -15 -250 -12 -16 -15 -60 -15
-220 -1 -111 -6 -221 -11 -246 -6 -25 -14 -133 -19 -240 -4 -107 -12 -208 -18
-225 -6 -16 -13 -118 -15 -225 -3 -108 -10 -208 -16 -223 -7 -19 -11 -153 -11
-411 l0 -383 -42 8 c-24 4 -46 8 -50 9 -3 0 -20 -12 -37 -26 l-31 -26 0 -195
0 -196 -39 6 c-22 3 -64 21 -94 41 -30 20 -59 36 -66 36 -6 0 -11 10 -11 23 0
12 -13 49 -29 82 -40 84 -52 135 -58 245 -3 57 -11 102 -19 115 -11 15 -14 60
-14 191 0 127 -4 183 -15 214 -12 34 -15 99 -15 314 -1 149 -5 291 -11 316 -5
25 -12 60 -15 78 l-7 32 71 0 c80 0 131 31 158 97 19 45 20 1093 2 1174 -36
155 -9 423 68 675 29 96 30 124 5 155 -17 21 -17 25 -3 49 24 39 84 100 115
116 39 21 35 53 -7 45 -15 -3 -104 89 -146 149 -21 30 -91 107 -155 170 -64
63 -123 128 -131 143 -9 17 -26 30 -44 34 -26 5 -30 10 -30 38 0 18 -6 35 -12
37 -26 10 -38 -4 -38 -42 0 -21 -4 -42 -10 -45 -5 -3 -10 -38 -10 -77 0 -135
-36 -178 -148 -178 -24 0 -55 -6 -70 -14 -15 -7 -55 -16 -89 -18 l-63 -4 0
171 c0 135 3 175 15 191 12 15 14 65 15 267 0 151 4 256 10 268 10 18 28 19
678 19 l667 0 18 -60z m269 43 c17 -16 18 -116 18 -2825 l0 -2808 -1040 0
-1040 0 0 456 0 456 38 -3 c53 -3 62 -1 62 14 0 33 -46 36 -526 37 -263 0
-479 2 -481 4 -18 18 23 44 147 96 135 56 704 342 733 368 l27 26 0 1098 c0
604 3 1098 7 1098 4 0 42 -34 84 -76 66 -65 83 -77 124 -85 80 -15 81 -12 88
158 l5 148 -64 61 c-35 33 -64 67 -64 76 0 8 -9 23 -20 33 -11 10 -20 24 -20
32 0 7 -11 19 -25 25 -14 6 -25 17 -25 25 0 20 69 92 104 109 17 8 42 21 56
29 43 24 116 55 131 55 22 0 40 -77 49 -210 5 -63 13 -135 19 -160 6 -25 10
-80 11 -122 0 -42 5 -89 11 -105 6 -15 13 -75 16 -133 2 -58 9 -120 15 -139 6
-19 14 -86 19 -150 4 -64 12 -136 18 -161 6 -25 10 -79 11 -121 0 -42 7 -96
15 -119 8 -23 15 -73 15 -109 0 -44 5 -74 15 -87 8 -10 15 -36 15 -56 0 -80
126 -239 211 -267 42 -13 56 -37 63 -106 3 -27 10 -70 15 -95 6 -25 10 -167
11 -316 0 -215 3 -280 15 -314 11 -31 15 -87 15 -214 0 -131 3 -176 14 -191 8
-13 16 -58 19 -115 6 -110 18 -161 58 -245 25 -53 29 -71 29 -151 0 -50 6
-110 14 -135 7 -24 19 -66 25 -94 9 -38 24 -63 64 -104 71 -73 112 -91 212
-90 213 1 275 85 275 375 0 109 4 163 15 194 11 31 15 86 15 199 0 123 3 161
15 177 12 15 14 66 15 280 0 206 3 270 15 304 12 33 15 93 15 270 0 177 3 237
15 270 11 32 15 90 15 240 0 150 4 208 15 240 12 33 15 94 15 274 0 189 3 236
15 252 12 15 14 65 15 270 0 204 3 254 15 270 12 16 14 72 15 325 0 260 2 308
15 319 22 19 22 1045 0 1074 -8 11 -15 36 -15 57 0 20 -7 56 -15 79 -8 23 -15
44 -15 46 0 14 215 2 232 -13z m-4450 -405 c4 -185 5 -182 -79 -264 -120 -117
-168 -128 -284 -67 -126 67 -134 72 -161 103 l-28 30 0 170 c0 94 2 170 4 170
3 0 33 -17 67 -37 61 -37 67 -38 169 -41 l105 -3 95 46 c52 24 98 45 102 45 4
0 8 -69 10 -152z m122 -193 c11 -8 31 -15 45 -15 14 0 35 -7 45 -15 11 -8 30
-15 42 -15 11 0 46 -13 77 -30 31 -16 65 -30 75 -30 11 0 44 -13 75 -30 31
-16 65 -30 74 -30 22 0 449 -213 475 -237 24 -22 24 -25 -20 -76 -52 -60 -132
-181 -132 -200 0 -17 22 -28 36 -19 6 4 32 41 59 82 28 41 65 92 84 113 l34
38 22 -21 c12 -11 30 -49 40 -83 9 -34 23 -74 31 -89 8 -14 14 -39 14 -55 0
-16 7 -38 15 -49 10 -13 15 -45 15 -99 0 -54 5 -86 15 -99 11 -15 15 -50 15
-141 0 -91 4 -126 15 -141 11 -15 14 -54 15 -175 0 -113 4 -168 15 -199 24
-67 21 -270 -3 -270 -10 0 -27 -7 -38 -15 -13 -10 -45 -14 -106 -15 -48 0 -99
-5 -114 -10 -15 -6 -64 -14 -108 -17 -45 -3 -89 -10 -99 -15 -33 -17 -38 32
-40 434 -2 322 -4 390 -16 397 -36 22 -37 8 -35 -345 3 -354 0 -388 -35 -399
-11 -3 -31 -30 -47 -62 -14 -31 -44 -82 -65 -113 -22 -32 -39 -62 -39 -68 0
-6 -13 -27 -30 -45 -16 -19 -30 -39 -30 -44 0 -5 -16 -32 -35 -59 -19 -27 -35
-56 -35 -65 0 -19 22 -31 36 -21 13 10 84 115 84 126 0 4 14 24 30 43 17 18
30 38 30 44 0 6 20 41 44 77 24 37 52 86 62 109 11 23 22 43 25 43 12 0 20
-68 10 -91 -10 -27 -27 -104 -36 -164 -4 -22 -16 -69 -27 -104 -17 -51 -18
-65 -7 -71 32 -20 66 42 83 155 8 50 27 135 34 155 3 8 9 -5 12 -30 4 -25 13
-69 19 -99 17 -82 14 -321 -4 -345 -12 -16 -15 -72 -15 -325 0 -344 -1 -347
-41 -356 -15 -4 -38 -14 -51 -24 -164 -129 -458 -155 -642 -59 -12 6 -40 28
-63 49 -24 22 -47 39 -53 39 -6 0 -37 25 -70 55 -33 30 -64 55 -70 55 -7 0
-10 303 -11 903 -2 963 -13 1839 -24 1897 -7 35 -6 36 47 62 58 29 218 177
218 203 0 20 48 19 74 0z m-695 -56 c20 -22 54 -51 76 -64 72 -42 197 -105
210 -105 8 0 16 -19 20 -47 11 -81 22 -963 24 -1896 l1 -887 -71 -68 c-39 -37
-83 -73 -98 -81 -14 -7 -42 -28 -61 -45 -64 -58 -195 -86 -310 -66 -36 6 -107
18 -159 26 -51 8 -98 17 -103 20 -15 10 -140 34 -173 34 -16 0 -49 8 -73 18
l-42 17 2 195 3 195 43 6 c27 3 52 15 70 32 15 15 34 27 42 27 17 0 290 270
290 287 0 8 20 36 45 62 25 26 45 53 45 59 0 6 18 32 40 57 22 25 40 51 40 57
0 6 14 26 30 45 17 18 30 40 30 47 0 7 9 21 20 31 11 10 20 24 20 31 0 7 12
26 26 43 33 40 184 340 184 367 0 11 7 29 15 40 8 10 15 35 15 55 0 20 7 42
15 49 13 11 15 63 15 360 0 283 3 355 15 390 22 62 19 116 -11 178 -15 31 -29
73 -32 95 -5 41 -45 77 -86 77 -31 0 -86 -69 -86 -109 0 -20 -7 -45 -15 -55
-8 -11 -15 -38 -15 -60 0 -23 -7 -50 -15 -60 -8 -11 -15 -38 -15 -60 0 -23 -7
-50 -15 -60 -8 -11 -15 -38 -15 -60 0 -23 -7 -50 -15 -60 -10 -13 -15 -43 -15
-87 0 -47 -4 -70 -15 -79 -12 -10 -15 -43 -15 -179 0 -212 6 -199 -213 -419
-155 -156 -237 -222 -276 -222 -6 0 -12 81 -14 213 -3 116 -8 231 -12 255 -10
57 6 55 50 -7 38 -53 54 -64 75 -51 20 12 -2 52 -61 111 -32 33 -50 62 -59 95
-15 53 -25 65 -48 57 -11 -5 -13 -16 -7 -47 4 -23 6 -51 5 -63 -2 -29 -1 -93
6 -376 l5 -228 -21 11 c-15 8 -68 10 -168 5 -209 -8 -272 -8 -314 0 l-36 7 -6
116 c-4 65 -11 133 -16 153 -17 63 -13 572 5 595 10 14 14 48 15 130 0 87 3
114 15 124 10 8 15 30 15 64 0 30 6 60 15 72 8 10 15 29 15 42 0 39 83 181
106 182 14 0 50 -40 58 -65 3 -11 31 -46 60 -78 48 -52 57 -57 75 -47 21 11
29 40 12 40 -14 0 -90 82 -97 105 -3 11 -20 34 -36 51 -21 23 -28 38 -24 52 7
22 139 92 172 92 11 0 29 7 40 15 10 8 31 15 45 15 14 0 34 7 45 15 10 8 31
15 45 15 14 0 34 7 45 15 10 8 31 15 45 15 14 0 34 7 45 15 10 8 31 15 45 15
14 0 34 7 45 15 10 8 27 15 37 15 11 0 31 6 45 13 15 8 42 21 60 30 19 9 40
17 49 17 8 0 27 6 41 14 62 31 147 74 151 75 2 0 20 -17 40 -40z m3936 -128
c76 -77 152 -162 170 -188 18 -26 54 -68 79 -93 25 -24 46 -48 46 -54 0 -8
-69 -91 -107 -128 -291 -280 -327 -311 -347 -291 -3 4 -6 59 -6 124 0 97 -3
120 -16 127 -23 13 -224 2 -256 -14 -15 -8 -40 -14 -55 -14 -16 0 -37 -6 -48
-14 -11 -7 -36 -16 -55 -19 -114 -16 -321 -149 -337 -216 -3 -14 -11 -32 -16
-40 -6 -7 -16 -23 -22 -35 -6 -11 -17 -21 -25 -21 -21 0 -16 212 6 236 8 8 14
26 14 39 0 37 23 130 33 130 4 0 55 47 113 105 78 76 123 112 168 134 33 16
69 39 78 50 14 17 29 21 76 21 36 0 66 6 78 15 11 8 41 14 72 15 30 0 66 6 80
13 15 8 40 20 56 28 38 18 54 65 55 157 1 55 4 72 15 72 8 0 76 -63 151 -139z
m-3792 -288 c3 -5 7 -29 11 -54 6 -42 5 -46 -19 -57 -23 -11 -25 -16 -25 -81
0 -37 -7 -88 -15 -111 -18 -52 -19 -107 -2 -113 21 -7 37 4 37 28 0 12 7 42
15 65 8 23 15 73 15 110 0 83 22 104 41 39 10 -33 10 -49 -4 -93 -15 -45 -17
-103 -17 -398 0 -295 -2 -347 -15 -358 -8 -7 -15 -29 -15 -49 0 -20 -7 -45
-15 -55 -8 -11 -15 -29 -15 -40 0 -27 -151 -327 -184 -367 -14 -17 -26 -36
-26 -43 0 -7 -9 -21 -20 -31 -11 -10 -20 -24 -20 -31 0 -7 -13 -29 -30 -47
-16 -19 -30 -39 -30 -45 0 -6 -18 -32 -40 -57 -22 -25 -40 -51 -40 -57 0 -6
-20 -33 -45 -59 -25 -26 -45 -54 -45 -61 0 -18 -238 -253 -276 -271 -17 -9
-36 -23 -43 -31 -8 -9 -28 -16 -45 -16 -17 0 -41 -7 -54 -15 -34 -24 -94 -3
-154 53 -68 63 -113 169 -126 292 -2 25 -11 54 -18 65 -9 13 -14 48 -14 103 0
58 -5 90 -16 106 -10 16 -14 42 -12 78 l3 53 60 8 c33 5 126 11 207 13 l147 5
-11 -32 c-6 -17 -23 -55 -38 -83 -41 -78 -55 -127 -39 -136 15 -10 49 6 49 23
0 10 53 128 93 206 13 26 14 27 107 70 56 25 91 55 247 213 231 231 223 217
223 429 0 136 3 169 15 179 11 9 15 32 15 79 0 44 5 74 15 87 8 10 15 37 15
60 0 22 7 49 15 60 8 10 15 37 15 60 0 22 7 49 15 60 8 10 15 37 15 60 0 22 7
49 15 60 8 10 15 34 15 52 0 49 46 103 63 75z m4003 -257 c15 -23 14 -30 -10
-108 -63 -209 -80 -313 -80 -508 -1 -89 5 -178 12 -209 8 -37 12 -158 12 -387
l0 -334 -79 0 c-84 0 -158 -20 -178 -47 -9 -12 -13 -68 -13 -195 0 -205 3
-201 -88 -114 -61 59 -102 132 -102 184 0 20 -7 46 -15 56 -10 13 -15 43 -15
87 0 36 -7 86 -15 109 -8 23 -15 77 -15 119 -1 42 -5 96 -11 121 -6 25 -14 99
-19 165 -4 66 -13 133 -19 148 -6 16 -11 63 -11 105 -1 42 -5 97 -11 122 -6
25 -14 99 -19 165 -4 66 -13 133 -19 148 -6 16 -11 61 -11 101 0 40 -5 98 -11
127 -21 98 -20 103 28 109 23 4 47 11 55 17 7 6 57 13 110 15 l97 3 3 -114 c3
-108 4 -115 28 -133 48 -35 97 -7 245 142 71 72 131 130 132 130 1 0 10 -11
19 -24z m-1096 -331 c0 -6 9 -20 20 -30 11 -10 20 -25 20 -34 0 -8 28 -42 63
-76 l63 -60 -4 -121 -4 -121 -26 5 c-16 3 -62 38 -112 86 -94 90 -106 114
-116 231 l-6 70 32 18 c18 9 34 26 37 36 5 21 33 18 33 -4z m-1250 -1148 c0
-198 3 -247 15 -263 21 -27 21 -241 0 -268 -12 -15 -15 -53 -15 -165 -1 -113
-4 -150 -15 -165 -10 -14 -15 -45 -15 -102 0 -47 -6 -99 -15 -124 -8 -23 -15
-64 -15 -90 0 -26 -7 -67 -15 -90 -25 -72 -21 -270 9 -356 13 -38 26 -105 30
-149 4 -44 15 -104 24 -132 15 -52 15 -53 -6 -76 -27 -28 -37 -61 -47 -147 -6
-54 -50 -198 -70 -230 -3 -6 -18 -10 -32 -10 -24 0 -25 2 -19 38 4 20 9 71 12
112 4 48 11 78 20 83 18 11 18 33 -1 41 -8 3 -15 16 -15 30 0 25 -19 39 -37
28 -6 -4 -14 -57 -17 -122 -8 -182 -14 -210 -41 -210 -31 0 -35 20 -35 175 1
121 10 231 25 281 8 26 -16 38 -41 20 -11 -9 -19 -31 -22 -68 l-4 -56 -42 5
c-60 8 -61 11 -64 165 -3 137 14 257 48 333 33 74 41 142 37 325 -10 460 -6
854 9 877 8 13 14 47 14 81 0 53 2 60 25 70 40 19 31 48 -12 43 -9 -1 -13 19
-13 71 -1 40 -5 93 -11 118 -5 25 -12 66 -16 91 l-5 46 79 6 c43 3 90 10 103
16 14 5 62 10 108 10 l82 1 0 -243z m2280 -281 c0 -233 -16 -266 -131 -266
-91 0 -90 -3 -87 222 l3 182 25 13 c14 7 61 13 108 13 l82 0 0 -164z m-3655
-666 c30 -27 60 -50 65 -50 6 0 29 -17 53 -39 94 -86 212 -126 372 -126 139 0
188 14 344 96 138 72 131 79 131 -138 0 -148 -10 -220 -40 -288 -33 -74 -50
-190 -50 -334 0 -198 9 -217 105 -230 l40 -6 6 -160 c3 -88 7 -161 7 -162 28
-39 196 -46 236 -10 34 29 74 140 92 255 19 123 27 138 58 115 14 -10 29 -37
35 -63 6 -25 18 -70 25 -100 8 -30 22 -84 31 -120 27 -101 31 -316 9 -399 -26
-94 -87 -214 -122 -240 -16 -11 -33 -32 -36 -46 l-6 -25 -300 0 c-299 0 -300
0 -300 21 0 23 -67 91 -115 116 -16 8 -51 36 -77 61 -26 25 -73 59 -105 76
l-58 31 -5 60 c-6 58 -63 194 -90 210 -6 4 -26 37 -46 73 -69 132 -123 198
-174 213 -107 32 -174 -28 -296 -266 -31 -60 -63 -121 -70 -135 -8 -14 -14
-41 -14 -62 0 -30 -5 -39 -34 -56 -19 -12 -44 -38 -54 -59 -11 -21 -32 -49
-47 -63 -15 -14 -35 -42 -46 -62 -10 -20 -39 -54 -63 -74 -25 -20 -47 -48 -50
-61 l-6 -23 -360 0 c-351 0 -360 0 -360 20 0 10 -14 35 -31 55 -19 21 -45 75
-67 137 l-37 103 0 210 c0 159 4 234 18 310 10 55 21 118 24 140 3 22 9 45 14
50 4 6 11 31 14 55 4 25 10 54 15 65 4 11 22 65 40 120 18 55 38 112 46 127 7
14 21 48 30 75 9 26 32 78 50 115 19 37 34 81 34 97 0 16 4 32 9 36 6 3 13 27
16 53 3 26 10 55 16 65 5 9 12 38 16 62 5 42 8 45 37 45 34 0 159 -24 174 -34
5 -3 52 -12 103 -20 52 -8 123 -20 159 -26 126 -22 276 16 355 89 25 23 49 41
55 41 6 0 42 29 80 65 38 36 74 65 79 65 6 0 36 -22 66 -50z m4003 -966 c14
-4 16 -140 6 -281 -7 -86 -27 -113 -71 -96 -31 11 -33 24 -33 199 0 202 3 207
98 178z m-3900 -313 c34 -36 62 -78 106 -163 20 -36 40 -69 46 -73 20 -12 90
-165 90 -196 0 -29 -1 -30 -32 -23 -39 8 -138 72 -193 125 -91 86 -116 83
-285 -38 -14 -10 -38 -21 -53 -24 -27 -6 -28 -5 -22 20 4 14 11 31 16 37 5 6
34 60 64 120 96 189 141 244 200 244 27 0 43 -7 63 -29z m3613 -68 c54 -33 73
-38 136 -42 l73 -3 0 -155 0 -155 -60 4 c-58 4 -63 7 -114 57 -41 40 -57 65
-66 100 -6 25 -18 69 -25 97 -14 47 -21 134 -11 134 3 0 33 -17 67 -37z m419
-62 c0 -151 -40 -252 -109 -276 -25 -8 -46 -15 -48 -15 -2 0 -3 69 -3 153 l0
154 64 31 c36 17 67 36 71 42 17 28 25 1 25 -89z m-4055 -231 c69 -64 177
-132 232 -146 78 -20 163 -67 208 -114 22 -23 56 -50 75 -60 51 -27 110 -86
110 -109 0 -20 -6 -20 -581 -23 -682 -3 -672 -4 -663 26 4 11 27 38 51 60 24
21 52 55 62 75 11 20 31 47 46 61 15 14 35 41 46 61 20 41 93 89 133 89 14 0
41 14 59 30 19 17 40 30 45 30 6 0 26 13 44 29 57 49 72 48 133 -9z M3286
7359 c-14 -11 -42 -25 -61 -30 -39 -11 -46 -34 -15 -44 24 -8 84 10 100 31 14
16 56 19 65 4 8 -13 73 -30 91 -23 28 10 13 29 -43 56 -69 33 -101 34 -137 6z
M3729 7357 c-19 -13 -47 -27 -62 -31 -33 -8 -35 -34 -3 -42 24 -6 79 16 91 36
8 13 86 13 120 0 18 -7 33 -7 46 0 18 10 27 39 12 41 -5 0 -19 3 -33 5 -99 18
-135 16 -171 -9z M3473 7233 c-20 -7 -15 -31 7 -38 18 -6 20 -15 20 -114 0
-59 -5 -122 -11 -140 -13 -38 7 -77 46 -87 30 -7 95 13 102 33 8 21 -16 33
-44 22 -48 -18 -48 -18 -44 145 3 151 3 154 -20 170 -24 16 -35 18 -56 9z
M3785 7212 c-89 -3 -115 -9 -115 -26 0 -20 23 -26 101 -26 73 0 109 11 109 34
0 19 -14 21 -95 18z M3241 7191 c-38 -38 -15 -75 28 -45 19 14 23 14 37 0 12
-12 20 -14 35 -5 12 6 27 8 35 5 19 -7 44 3 44 18 0 37 -147 59 -179 27z
M3715 6759 c-11 -4 -71 -8 -133 -8 -115 -1 -152 -10 -152 -36 0 -16 9 -18 48
-15 16 1 22 -4 22 -19 0 -11 11 -28 25 -37 14 -9 25 -22 25 -29 0 -22 30 -25
49 -6 11 11 29 24 40 31 11 6 23 21 26 33 4 16 19 28 48 38 41 14 60 42 35 51
-7 3 -22 2 -33 -3z m-102 -75 c-7 -18 -54 -16 -61 4 -2 8 8 12 32 12 28 0 34
-3 29 -16z M3948 4994 c-45 -24 -48 -40 -48 -272 0 -183 3 -222 15 -232 8 -7
15 -18 15 -25 0 -18 96 -105 117 -105 10 0 27 -7 37 -15 14 -11 46 -15 110
-15 102 0 155 27 229 115 l37 44 0 245 c0 242 0 245 -22 260 -32 23 -449 23
-490 0z m462 -261 l-1 -228 -37 -41 c-65 -72 -91 -84 -176 -84 -49 0 -88 6
-113 17 -43 19 -103 71 -103 89 0 6 -7 17 -15 24 -22 18 -18 35 10 48 40 19
31 48 -12 43 -16 -2 -18 310 -3 340 10 18 23 19 230 19 l220 0 0 -227z"/>
</g>
</g><!--place-->
</svg>