<svg version="1.0" xmlns="http://www.w3.org/2000/svg"
 width="1056.000000pt" height="882.000000pt" viewBox="0 0 1056.000000 882.000000"
 preserveAspectRatio="xMidYMid meet">

<g transform="translate(0.000000,882.000000) scale(0.100000,-0.100000)"
fill="#2B2B27">
<path d="M3333 8083 c-7 -3 -13 -17 -13 -32 0 -23 -6 -28 -47 -40 -27 -8 -65
-22 -85 -33 -26 -12 -75 -21 -160 -27 -113 -7 -129 -11 -193 -44 -140 -71
-281 -252 -313 -402 -38 -180 -38 -190 -9 -370 27 -161 46 -228 85 -300 l27
-50 -27 -54 c-16 -30 -28 -64 -28 -76 0 -12 -7 -30 -15 -41 -8 -10 -15 -28
-15 -39 -1 -28 -39 -69 -76 -84 -39 -16 -86 -86 -110 -166 -10 -33 -24 -65
-32 -72 -16 -14 -34 -46 -97 -173 -83 -168 -81 -163 -139 -371 -9 -31 -16 -69
-16 -86 0 -17 -6 -48 -13 -69 -8 -22 -17 -95 -20 -164 -4 -69 -11 -140 -18
-158 -12 -34 -8 -126 10 -237 5 -33 10 -115 10 -182 1 -69 6 -134 13 -150 6
-15 15 -89 19 -163 4 -74 12 -155 18 -180 5 -25 10 -106 11 -181 0 -95 5 -149
15 -179 11 -32 15 -90 15 -240 0 -150 -4 -208 -15 -240 -9 -26 -15 -80 -15
-139 -1 -68 -5 -102 -15 -115 -10 -13 -15 -43 -15 -87 0 -36 -7 -86 -15 -109
-32 -90 -20 -116 81 -176 17 -10 19 -30 20 -270 1 -171 5 -278 14 -314 15 -65
73 -196 99 -225 57 -62 62 -128 12 -156 -31 -18 -79 -108 -88 -166 -6 -36 11
-134 29 -167 62 -116 70 -228 32 -435 -7 -37 10 -132 32 -173 8 -14 14 -31 14
-37 0 -8 -102 -11 -346 -11 -219 0 -352 -4 -365 -10 -32 -18 -22 -47 14 -41
47 8 6721 -1 6742 -9 18 -7 33 -7 46 0 18 10 27 39 12 41 -5 0 -19 3 -33 6
-14 4 -718 9 -1565 12 l-1540 6 38 23 c20 13 37 28 37 32 0 5 17 30 38 57 128
165 140 392 32 613 -26 54 -398 426 -445 446 -16 7 -46 29 -65 49 -41 42 -79
65 -112 65 -14 0 -34 13 -51 35 -15 19 -42 42 -60 51 -18 9 -58 41 -89 70 -31
30 -61 54 -67 54 -6 0 -33 20 -61 45 -28 25 -55 45 -60 45 -5 0 -32 20 -60 45
-28 25 -55 45 -60 45 -5 0 -31 19 -58 42 -27 24 -64 52 -82 63 -78 47 -99 62
-139 97 -22 21 -45 38 -51 38 -5 0 -31 19 -57 42 -27 24 -67 51 -90 62 -50 22
-63 51 -63 145 -1 42 -6 73 -15 85 -8 11 -15 37 -15 57 0 21 -6 50 -14 66 -18
36 -38 115 -44 173 -2 25 -11 54 -18 65 -9 12 -14 46 -14 88 0 38 -7 84 -15
104 -18 44 -17 48 52 193 81 170 93 196 93 206 0 5 8 25 19 44 10 19 26 60 36
90 10 30 24 64 31 75 8 11 14 32 14 47 0 15 4 29 9 33 5 3 26 56 47 118 20 61
43 121 49 132 7 11 21 45 30 75 10 32 33 72 54 95 72 78 181 272 181 321 0 11
11 54 25 94 24 70 33 149 18 163 -11 12 -9 71 4 111 24 71 18 124 -17 144 -16
9 -30 23 -30 29 0 27 -47 46 -84 33 -49 -16 -76 -6 -76 30 0 15 -6 30 -12 32
-24 9 -38 -4 -38 -33 0 -16 -4 -29 -9 -29 -14 0 -81 -106 -81 -128 0 -11 -6
-25 -14 -32 -8 -6 -16 -24 -18 -38 -3 -25 -6 -27 -45 -24 -72 6 -94 -14 -127
-115 -27 -80 -29 -103 -33 -263 -4 -149 -7 -181 -24 -217 -27 -57 -39 -54 -39
11 0 29 -7 73 -15 96 -8 23 -15 70 -15 103 0 33 -7 85 -16 116 -33 120 -117
377 -129 396 -6 11 -18 38 -25 60 -7 22 -19 49 -25 60 -7 11 -18 38 -25 60
-16 51 -59 143 -70 150 -5 3 -22 34 -38 68 -27 57 -86 123 -135 152 -16 9 -16
16 10 93 19 56 32 79 38 73 46 -46 252 -68 310 -33 34 21 61 69 70 124 4 24
12 39 25 43 27 8 60 53 60 80 0 25 22 35 80 35 76 0 80 10 73 189 l-6 159 39
59 c76 111 86 139 92 251 l5 103 36 19 c52 26 66 59 66 154 0 142 -99 294
-193 296 -25 0 -133 52 -172 82 -54 42 -137 89 -175 99 -108 29 -115 33 -115
60 0 27 -15 40 -37 32z m132 -135 c47 -14 98 -43 155 -86 43 -33 188 -102 214
-102 14 0 30 -6 35 -12 81 -99 106 -154 106 -234 0 -34 -6 -72 -14 -86 -16
-32 -81 -63 -113 -55 -13 4 -50 13 -83 20 -33 8 -88 26 -122 41 -71 30 -181
36 -236 12 -18 -7 -76 -59 -130 -115 -54 -55 -104 -101 -112 -101 -8 0 -24 18
-35 41 -27 51 -73 73 -146 67 -74 -6 -99 -27 -145 -121 -42 -85 -50 -174 -20
-210 17 -21 24 -92 12 -116 -13 -23 -79 -60 -129 -72 -31 -7 -34 -5 -57 42
-39 76 -62 161 -80 289 -3 25 -11 69 -17 98 -11 53 -8 90 24 237 20 91 84 204
161 283 102 104 143 123 292 133 81 6 135 15 165 28 25 10 56 24 70 30 33 14
142 8 205 -11z m188 -567 c70 -28 132 -47 191 -58 l29 -6 -6 -82 c-6 -89 -21
-125 -90 -228 l-40 -58 5 -160 5 -159 -36 0 c-56 -1 -121 -34 -121 -63 0 -42
-21 -60 -63 -52 -20 4 -37 13 -37 20 0 16 -23 25 -39 15 -23 -13 -8 -54 25
-70 37 -18 37 -58 1 -118 l-20 -34 -91 4 c-74 3 -102 8 -150 31 -67 31 -146
92 -146 112 0 15 -19 24 -37 17 -28 -10 -13 -51 34 -91 l47 -40 -24 -76 -24
-77 -46 4 c-26 3 -63 13 -83 24 -19 10 -62 32 -94 49 -32 16 -73 42 -91 57
-18 15 -38 28 -44 28 -5 0 -26 14 -45 30 -18 17 -39 30 -46 30 -8 0 -25 13
-40 28 l-28 29 21 25 c11 15 20 34 20 45 0 10 7 27 15 37 8 11 15 29 15 41 0
44 53 129 85 136 49 10 153 67 171 94 10 15 26 25 41 25 32 0 63 17 63 35 0
16 -7 18 -57 15 -29 -1 -31 1 -38 39 -4 23 -10 43 -15 46 -5 3 -11 23 -15 45
-8 45 53 193 86 211 26 13 106 11 119 -3 51 -61 58 -85 50 -154 -9 -74 -2 -91
32 -73 12 7 18 21 18 47 0 54 10 81 31 87 10 4 67 56 127 116 l107 109 78 0
c62 0 92 -6 150 -29z m-1043 -1006 c70 -42 99 -61 117 -77 10 -9 43 -28 73
-43 30 -15 62 -33 71 -41 20 -18 125 -54 156 -54 14 0 38 -10 54 -22 82 -63
103 -86 130 -145 17 -34 34 -65 39 -68 11 -7 54 -99 70 -150 7 -22 18 -49 25
-60 6 -11 18 -38 25 -60 7 -22 19 -49 25 -60 12 -19 96 -276 129 -396 9 -31
16 -83 16 -116 0 -33 7 -80 15 -103 39 -110 18 -251 -49 -330 -14 -17 -26 -37
-26 -44 0 -7 -9 -21 -20 -31 -11 -10 -20 -24 -20 -31 0 -7 -13 -28 -29 -46
-15 -18 -31 -43 -35 -56 -7 -22 -63 -59 -74 -47 -3 3 -9 76 -13 163 -4 86 -12
171 -18 187 -5 17 -12 91 -13 166 l-3 137 28 15 c26 15 27 20 27 90 0 53 -4
76 -13 80 -26 10 -36 -9 -39 -72 -4 -83 -28 -99 -28 -18 0 89 -26 138 -60 117
-11 -7 -11 -16 -2 -48 7 -22 12 -64 12 -94 0 -30 6 -60 12 -66 9 -9 15 -66 19
-170 4 -86 12 -177 18 -202 5 -25 10 -96 11 -157 l0 -113 -49 0 c-27 0 -68 -7
-91 -15 -23 -8 -57 -15 -75 -15 -18 0 -52 -7 -75 -15 -23 -8 -57 -15 -75 -15
-18 0 -52 -7 -75 -15 -23 -8 -70 -15 -104 -15 -79 0 -96 22 -96 127 -1 44 -6
75 -15 87 -9 12 -15 42 -15 75 -1 33 -7 64 -15 75 -9 12 -15 42 -15 72 0 28
-7 71 -15 94 -8 23 -15 65 -15 92 0 27 -6 59 -14 71 -9 15 -16 75 -20 192 -7
169 -12 190 -44 177 -13 -4 -14 -24 -9 -124 7 -121 4 -140 -14 -89 -11 32 -29
43 -48 31 -22 -13 -2 -68 35 -98 25 -20 34 -35 34 -58 0 -16 7 -39 15 -50 8
-11 15 -41 15 -70 0 -28 7 -71 15 -94 8 -23 15 -66 15 -94 0 -30 6 -60 15 -72
8 -11 14 -42 15 -75 0 -33 6 -63 15 -75 9 -12 14 -43 15 -88 0 -112 37 -156
129 -156 l51 0 0 -44 c0 -24 7 -63 15 -86 8 -23 15 -56 15 -73 0 -17 7 -54 15
-84 8 -29 22 -77 30 -106 8 -30 15 -63 15 -73 0 -11 7 -29 15 -40 8 -10 15
-30 15 -44 0 -14 6 -34 14 -45 7 -11 19 -38 26 -60 7 -22 26 -55 41 -73 16
-18 29 -39 29 -46 0 -17 37 -49 88 -74 81 -41 197 -24 268 40 12 11 37 27 55
36 19 9 41 32 50 50 9 17 35 53 58 80 23 26 47 53 53 60 20 25 32 -6 38 -97 3
-48 10 -94 16 -102 7 -8 14 -34 16 -59 6 -57 26 -137 44 -173 8 -16 14 -45 14
-66 0 -20 6 -45 14 -56 8 -12 15 -54 17 -102 l4 -81 -30 -6 c-39 -6 -137 -31
-200 -50 -83 -24 -127 -37 -185 -53 -30 -8 -72 -21 -93 -29 -87 -33 -122 -16
-172 86 -28 55 -45 80 -97 144 -23 28 -28 43 -28 89 0 35 -5 57 -12 60 -28 9
-38 -6 -38 -59 0 -50 -3 -57 -42 -97 -47 -47 -69 -80 -122 -177 -55 -102 -77
-123 -117 -117 -30 4 -129 38 -264 91 -22 8 -51 15 -65 16 -14 0 -31 9 -38 20
-6 11 -30 29 -52 40 -51 26 -56 38 -36 97 9 25 16 76 16 113 0 43 5 73 15 86
10 13 14 47 15 115 0 59 6 113 15 139 22 61 22 459 0 520 -10 30 -15 84 -15
179 -1 75 -6 156 -11 181 -6 25 -14 106 -18 180 -4 74 -13 148 -19 163 -7 16
-12 81 -13 150 0 67 -5 149 -10 182 -19 125 -21 164 -10 197 6 18 14 89 18
158 3 69 12 142 20 164 7 21 13 52 13 69 0 17 7 55 16 86 42 150 57 199 74
236 29 64 110 227 128 260 9 17 18 31 19 33 3 8 51 -23 90 -59 41 -37 73 -44
73 -14 0 17 -96 105 -115 105 -19 0 -19 5 4 71 22 64 60 126 81 131 8 3 31
-10 51 -26 20 -17 51 -40 69 -51z m1440 -735 c0 -16 -4 -31 -9 -35 -5 -3 -22
-41 -36 -86 -15 -44 -33 -83 -41 -86 -19 -7 -18 -29 2 -37 33 -13 61 21 89
104 15 44 31 82 36 85 5 4 9 19 9 35 0 25 34 50 67 50 7 0 -10 -55 -23 -77 -8
-12 -14 -33 -14 -46 0 -13 -7 -32 -15 -43 -8 -10 -15 -29 -15 -42 0 -12 -7
-25 -15 -28 -21 -9 -19 -32 5 -39 30 -9 60 12 60 43 0 15 7 36 15 46 8 11 15
29 15 41 0 11 9 38 20 59 26 52 39 23 20 -43 -7 -25 -15 -63 -18 -84 -2 -22
-14 -48 -28 -62 -13 -13 -24 -31 -24 -38 0 -24 29 -28 50 -7 20 20 20 20 20
-3 0 -13 -11 -57 -25 -97 -14 -40 -25 -83 -25 -94 0 -49 -109 -243 -181 -321
-21 -23 -44 -63 -54 -95 -9 -30 -23 -64 -30 -75 -6 -11 -29 -71 -49 -132 -21
-62 -42 -115 -47 -118 -5 -4 -9 -18 -9 -33 0 -15 -6 -36 -14 -47 -7 -11 -21
-45 -31 -75 -10 -30 -26 -71 -36 -90 -11 -19 -19 -39 -19 -44 0 -10 -14 -41
-93 -206 -31 -63 -59 -127 -62 -142 -4 -16 -21 -37 -41 -49 -19 -11 -34 -25
-34 -30 0 -6 -20 -31 -44 -57 -24 -26 -47 -57 -50 -70 -4 -12 -25 -31 -46 -42
-21 -11 -42 -24 -45 -30 -3 -6 -24 -19 -45 -30 -79 -40 -208 -14 -231 48 -6
15 -21 38 -33 52 -13 14 -29 43 -36 65 -7 22 -19 49 -26 60 -8 11 -14 31 -14
45 0 14 -7 34 -15 44 -8 11 -15 29 -15 40 0 18 -5 38 -44 177 -9 31 -16 69
-16 86 0 17 -7 50 -15 73 -26 74 -21 116 16 129 18 6 46 11 64 11 18 0 52 7
75 15 23 8 57 15 75 15 18 0 52 7 75 15 23 8 70 15 103 15 l60 0 -7 -42 c-16
-110 -25 -165 -31 -184 -4 -14 -2 -23 8 -27 29 -11 48 17 58 83 13 98 26 154
36 157 41 14 81 43 94 69 8 18 27 46 42 64 15 17 27 37 27 44 0 7 9 21 20 31
11 10 20 24 20 31 0 7 12 27 26 44 32 38 64 98 64 121 0 31 12 49 40 64 55 28
68 80 73 275 4 159 7 183 33 263 24 76 31 87 51 87 27 0 30 -28 11 -92 -9 -32
-9 -41 2 -48 32 -20 60 28 60 100 0 29 6 41 25 54 15 10 25 26 25 40 0 13 7
29 15 36 8 7 15 21 15 32 0 24 61 119 72 112 4 -3 8 -18 8 -34z m-1151 -2652
c17 -24 44 -70 62 -103 65 -125 128 -158 226 -121 21 8 63 21 93 29 58 16 102
29 185 53 237 71 295 69 386 -12 27 -24 54 -44 59 -44 5 0 31 -19 58 -42 27
-24 64 -52 82 -63 78 -47 99 -62 139 -97 22 -21 45 -38 51 -38 5 0 32 -20 60
-45 28 -25 55 -45 60 -45 5 0 32 -20 60 -45 28 -25 55 -45 61 -45 6 0 36 -24
67 -54 31 -29 71 -61 89 -70 37 -19 73 -61 73 -87 0 -10 -18 -39 -40 -64 -22
-25 -40 -51 -40 -56 0 -5 -26 -38 -57 -72 -32 -35 -67 -78 -78 -97 -41 -68
-61 -99 -77 -117 -9 -10 -30 -46 -47 -80 -17 -34 -36 -65 -42 -68 -13 -9 -89
-163 -89 -182 0 -15 -40 -10 -123 18 -31 10 -65 19 -75 19 -21 1 -108 29 -187
63 -77 32 -332 117 -352 117 -8 0 -55 14 -105 30 -49 17 -97 30 -106 30 -9 0
-35 7 -57 15 -22 8 -58 14 -81 15 -22 0 -69 11 -104 25 -34 13 -79 27 -99 31
-20 3 -55 12 -79 20 -23 8 -56 14 -72 14 -42 0 -260 74 -337 115 -36 19 -71
35 -78 35 -7 0 -20 18 -30 40 -10 22 -25 45 -32 52 -18 15 -65 107 -88 173
-23 65 -37 284 -29 443 8 138 7 137 89 106 117 -46 233 -87 258 -91 60 -11
114 36 176 152 47 89 115 185 131 185 5 0 22 -19 39 -42z m1956 -889 c22 -22
57 -49 77 -60 56 -29 402 -375 428 -429 105 -215 94 -411 -32 -573 -21 -27
-38 -52 -38 -57 0 -4 -11 -11 -25 -14 -13 -3 -30 -16 -36 -29 -7 -12 -17 -25
-23 -29 -6 -4 -457 -8 -1003 -8 l-991 0 -17 53 c-10 28 -25 70 -35 92 -30 68
-42 126 -47 224 -3 61 -11 103 -20 118 -16 24 -15 65 6 198 16 105 29 112 142
79 30 -8 86 -25 124 -36 39 -11 84 -24 100 -28 87 -23 338 -106 395 -131 36
-15 92 -35 125 -44 33 -8 81 -22 107 -30 25 -9 69 -19 96 -25 27 -5 66 -20 85
-33 20 -13 59 -27 88 -31 64 -9 150 -31 178 -46 15 -8 27 -8 41 0 22 12 27 39
8 41 -24 2 -33 5 -58 16 -28 12 -103 30 -170 39 -51 8 -70 19 -70 43 0 22 75
176 89 186 6 3 25 34 42 68 17 34 38 70 47 80 16 18 36 49 77 117 11 19 46 62
78 97 31 34 57 67 57 72 0 5 18 31 40 56 22 25 40 50 40 56 0 26 58 7 95 -32z
m-2386 -218 c104 -53 280 -111 334 -111 24 0 57 -9 200 -52 55 -17 67 -24 62
-37 -27 -66 -42 -284 -21 -316 9 -13 16 -29 16 -35 0 -15 -81 -12 -130 5 -98
34 -165 13 -204 -66 -56 -111 0 -240 124 -286 50 -18 90 -49 90 -70 0 -10 -55
-13 -288 -13 l-287 0 -21 48 c-33 75 -48 152 -35 186 7 16 14 84 18 150 6 125
-7 196 -52 286 -20 40 -37 127 -30 152 19 61 57 126 80 136 14 7 30 23 35 37
12 33 16 32 109 -14z m461 -596 c23 -8 62 -15 85 -15 l43 0 4 -52 c5 -61 24
-139 44 -183 17 -37 44 -114 44 -126 0 -5 -36 -9 -80 -9 -78 0 -80 1 -80 24 0
30 -55 80 -107 96 -54 17 -108 73 -123 126 -12 42 -11 49 14 99 26 54 27 55
70 55 24 0 63 -7 86 -15z M3545 7187 c-22 -5 -50 -11 -62 -13 -13 -2 -23 -11
-23 -19 0 -21 47 -30 91 -18 42 11 72 2 135 -41 28 -19 42 -23 56 -15 25 13
23 36 -4 45 -13 3 -35 15 -50 26 -46 32 -99 45 -143 35z M2997 7148 c-20 -11
-22 -34 -4 -41 17 -6 47 11 47 27 0 19 -22 26 -43 14z M3503 7024 c-7 -3 -13
-12 -13 -19 0 -13 8 -17 62 -29 19 -4 25 -11 21 -25 -3 -10 2 -21 10 -24 37
-14 75 63 40 81 -23 13 -104 23 -120 16z M6283 7840 c-44 -26 -45 -35 -39
-276 3 -115 6 -231 5 -259 0 -27 -2 -475 -5 -995 -5 -1065 4 -970 -85 -970
-25 0 -66 -7 -89 -15 -23 -8 -72 -15 -109 -15 -38 -1 -76 -7 -91 -15 -14 -8
-52 -14 -86 -15 -34 0 -81 -7 -104 -15 -23 -8 -64 -15 -91 -15 -26 0 -60 -5
-75 -10 -15 -6 -64 -14 -108 -17 -45 -3 -98 -12 -120 -20 -21 -7 -60 -13 -86
-13 -26 0 -67 -7 -90 -15 -23 -8 -68 -15 -99 -15 -58 0 -101 -19 -101 -45 0
-11 -36 -14 -187 -14 -102 0 -207 -5 -232 -10 -25 -6 -58 -13 -73 -16 -16 -3
-28 -12 -28 -20 0 -22 47 -29 100 -16 74 19 403 17 432 -3 18 -13 53 -16 183
-16 125 -1 164 -4 179 -15 16 -12 64 -15 256 -15 175 0 239 -3 248 -12 9 -9
75 -14 230 -18 l217 -5 2 -765 c2 -548 6 -771 14 -787 9 -16 9 -30 0 -54 -8
-22 -11 -196 -11 -566 l0 -534 24 -24 25 -25 1014 0 c951 0 1016 1 1036 18
l21 17 4 1100 c1 605 6 1117 11 1138 5 25 3 47 -5 61 -8 16 -10 62 -6 162 4
76 6 162 5 189 -5 162 1 833 9 1210 9 389 9 443 -5 464 -12 18 -14 39 -8 95 9
96 9 159 -3 301 -12 142 -8 169 24 184 39 18 30 47 -13 42 -16 -2 -18 120 -4
165 5 16 12 123 14 237 l5 208 -33 34 -32 35 -1004 0 c-981 0 -1005 0 -1036
-20z m1868 -52 c-5 -13 -27 -59 -50 -102 -22 -44 -46 -96 -52 -115 -6 -20 -19
-45 -28 -56 -21 -25 -87 -161 -96 -197 -4 -14 -15 -34 -26 -44 -10 -9 -19 -29
-19 -44 0 -15 -8 -38 -18 -51 -10 -13 -35 -58 -54 -99 -20 -41 -79 -163 -132
-271 -53 -107 -96 -203 -96 -211 0 -9 -34 -83 -75 -165 -41 -81 -75 -156 -75
-165 0 -9 -12 -40 -27 -70 -16 -29 -30 -64 -33 -77 -3 -13 -10 -26 -16 -28 -8
-3 -13 59 -17 209 -6 228 -18 293 -64 352 -16 20 -23 42 -23 72 0 93 -120 171
-204 133 -48 -22 -120 -205 -121 -311 -1 -31 -7 -64 -15 -72 -7 -9 -17 -35
-21 -59 -5 -23 -16 -76 -24 -117 -28 -140 -34 -165 -43 -190 -5 -14 -13 -50
-17 -80 -4 -30 -12 -66 -17 -80 -6 -14 -14 -52 -19 -85 -5 -33 -16 -94 -24
-135 -9 -41 -22 -124 -31 -185 -8 -60 -19 -135 -24 -165 -5 -30 -9 -78 -9
-106 -1 -33 -6 -56 -16 -64 -13 -11 -15 5 -16 131 0 79 -5 180 -10 224 -5 44
-14 188 -19 320 -4 132 -13 253 -19 268 -6 16 -11 70 -11 120 -1 51 -5 110 -9
132 -5 22 -14 67 -20 100 -11 60 -29 134 -57 231 -8 28 -14 59 -14 68 0 10 -6
30 -14 44 -13 27 -31 90 -46 165 -4 21 -13 44 -19 50 -6 6 -11 23 -11 37 0 14
-7 35 -15 46 -8 10 -15 32 -15 47 0 19 -10 39 -29 56 -36 33 -41 67 -47 328
-4 129 -2 199 6 213 11 20 14 20 935 20 l925 0 -9 -22z m171 0 c12 -19 13 -56
6 -223 -7 -164 -22 -449 -27 -502 0 -7 -12 -18 -26 -25 -25 -13 -125 -196
-125 -229 0 -9 -7 -22 -15 -29 -8 -7 -15 -20 -15 -30 0 -10 -7 -23 -15 -30 -8
-7 -15 -21 -15 -31 0 -10 -20 -58 -45 -106 -25 -48 -45 -95 -45 -104 0 -10
-16 -48 -35 -86 -19 -37 -35 -75 -35 -84 0 -19 22 -31 37 -21 14 10 83 151 83
171 0 9 20 56 45 104 25 48 45 96 45 106 0 10 7 24 15 31 8 7 15 20 15 30 0
10 7 23 15 30 8 7 15 19 15 28 0 19 92 211 102 212 14 1 22 -209 12 -347 -5
-75 -3 -96 10 -115 17 -24 21 -92 10 -196 -7 -59 -8 -63 -48 -86 -56 -32 -106
-127 -73 -139 22 -7 36 4 58 47 11 23 29 48 40 54 20 13 20 9 14 -265 -5 -260
-10 -1001 -7 -1068 1 -16 -1 -96 -4 -177 l-5 -146 -29 -12 c-23 -9 -42 -39
-101 -158 -40 -81 -90 -172 -111 -203 -21 -31 -38 -61 -38 -67 0 -5 -16 -29
-35 -52 -67 -80 -142 -205 -159 -263 -41 -145 -46 -165 -46 -180 0 -30 -71
-154 -123 -213 -21 -25 -48 -72 -72 -124 -8 -19 -22 -48 -30 -65 -8 -16 -31
-77 -50 -134 -19 -57 -38 -108 -43 -115 -5 -6 -24 -56 -42 -111 -18 -55 -38
-109 -45 -120 -6 -11 -20 -45 -30 -75 -9 -30 -23 -64 -30 -75 -6 -11 -29 -71
-49 -132 -21 -62 -41 -115 -45 -118 -5 -2 -14 -25 -21 -50 l-13 -45 -448 0
-449 0 -5 23 c-8 32 1 1045 9 1087 5 24 17 41 37 52 22 13 29 24 29 47 0 16 4
32 9 36 8 4 122 345 233 695 l33 105 7 295 c12 488 18 553 51 587 22 23 27 39
28 79 0 27 4 74 9 104 5 30 16 105 24 165 9 61 22 144 31 185 8 41 19 102 24
135 5 33 13 71 19 85 5 14 13 50 17 80 4 30 12 66 17 80 9 25 15 50 43 190 39
196 34 187 94 165 55 -19 94 -19 131 0 33 17 70 73 70 105 0 13 8 32 17 42 16
18 17 16 36 -39 38 -119 37 -627 -2 -666 -6 -6 -11 -21 -11 -32 0 -12 -13 -61
-30 -110 -32 -94 -38 -151 -17 -158 21 -7 37 4 37 27 0 12 14 62 30 111 17 49
30 98 30 110 0 11 5 26 11 32 7 7 18 46 25 89 7 42 15 78 16 79 51 33 68 50
68 64 0 10 14 43 30 74 17 31 30 65 30 74 0 10 34 85 75 166 41 82 75 156 75
165 0 8 43 104 96 211 53 108 112 230 132 271 19 41 44 86 54 99 10 13 18 36
18 51 0 15 9 35 19 44 11 10 22 30 26 44 9 36 75 172 96 197 9 11 22 36 28 55
6 19 34 80 61 134 28 55 50 106 50 113 0 25 95 17 112 -9z m-2008 -584 c3 -9
6 -25 6 -37 0 -12 7 -31 15 -41 8 -11 15 -32 15 -46 0 -14 5 -31 11 -37 6 -6
15 -29 19 -50 15 -75 33 -138 46 -165 8 -14 14 -34 14 -44 0 -9 6 -40 14 -68
28 -97 46 -171 57 -231 6 -33 15 -78 20 -100 4 -22 8 -81 9 -132 0 -50 5 -104
11 -120 6 -15 15 -136 19 -268 5 -132 14 -276 19 -320 5 -44 10 -143 10 -221
1 -84 5 -144 12 -151 7 -7 8 -54 5 -139 -4 -71 -9 -262 -14 -424 l-7 -295 -33
-105 c-98 -309 -206 -639 -220 -670 -9 -19 -19 -48 -22 -64 -3 -16 -11 -31
-17 -34 -10 -3 -13 154 -13 762 l0 766 -32 20 c-30 18 -52 20 -233 20 -154 1
-206 4 -225 15 -20 11 -75 14 -255 15 -180 1 -235 4 -255 15 -19 11 -65 14
-182 15 -151 0 -156 1 -151 20 4 17 14 20 58 20 29 0 72 7 95 15 23 8 64 15
90 15 26 0 65 6 86 13 22 8 75 17 120 20 44 3 93 11 108 17 15 5 49 10 75 10
27 0 68 7 91 15 23 8 73 15 109 15 44 0 74 5 87 15 12 9 43 14 85 15 37 0 86
7 109 15 23 8 66 15 94 15 39 0 61 6 89 25 l37 26 0 939 c0 545 4 940 9 940 5
0 12 -7 15 -16z m848 -413 c44 -40 56 -126 21 -168 -12 -16 -22 -39 -23 -52 0
-44 -38 -91 -72 -91 -101 0 -134 42 -104 129 9 24 16 50 16 59 0 9 15 46 33
83 38 81 71 92 129 40z m1162 -2308 c-4 -16 -9 -524 -11 -1130 l-3 -1103 -525
0 c-587 0 -547 -6 -507 70 11 19 34 80 52 135 18 55 39 109 45 120 7 11 21 45
30 75 10 30 24 64 30 75 7 11 27 65 45 120 18 55 37 105 42 111 5 7 24 58 43
115 19 57 42 118 50 134 8 17 22 46 30 65 24 52 51 99 72 124 52 59 123 183
123 213 0 15 5 35 46 180 17 58 92 183 159 263 19 23 35 46 35 52 0 5 20 40
44 76 24 37 72 126 107 199 48 98 69 132 83 133 15 0 17 -4 10 -27z M4166
6909 l-26 -20 0 -234 0 -233 -32 -5 c-18 -3 -46 -8 -63 -12 -16 -3 -40 -8 -52
-11 -46 -9 -21 -44 32 -44 14 0 26 -7 29 -18 4 -10 62 -73 130 -141 84 -83
123 -128 119 -138 -3 -8 0 -19 8 -23 16 -10 49 6 49 24 0 7 54 66 121 132 66
65 125 128 129 140 5 13 21 24 39 27 29 6 51 31 38 43 -3 3 -23 8 -44 10 -21
2 -57 6 -80 10 l-43 6 0 238 c0 294 16 270 -186 270 -128 0 -144 -2 -168 -21z
m77 -45 c-3 -9 0 -20 8 -24 17 -11 49 6 49 25 0 12 17 15 85 15 l85 0 0 -239
c0 -237 0 -240 22 -255 12 -9 35 -16 50 -16 22 0 26 -4 21 -17 -7 -23 -214
-233 -228 -233 -15 0 -235 224 -235 238 0 7 12 12 26 12 65 0 64 -4 64 259 0
131 3 241 7 244 14 15 53 7 46 -9z"/>
</g>
</svg>